<svg width="485" height="86" viewBox="0 0 485 86" fill="none" xmlns="http://www.w3.org/2000/svg">
<g clip-path="url(#clip0_497_8295)">
<path d="M81.0984 42.6534C81.0984 64.9555 62.8512 83.2026 40.5492 83.2026C18.2471 83.2026 0 64.9555 0 42.6534C0 20.1486 18.0444 2.10425 40.5492 2.10425C59.2018 2.10425 75.016 14.6745 79.6791 31.9079C79.8819 32.3134 79.8819 32.9216 80.0846 33.3271C80.2874 34.3408 80.4901 35.3546 80.6929 36.3683C80.8956 37.1793 80.8956 38.193 81.0984 39.004C81.0984 39.4095 81.0984 39.815 81.0984 40.2205C81.0984 41.0315 81.0984 41.8424 81.0984 42.6534Z" fill="#0032D3"/>
<path d="M44.6042 43.2616C45.0096 44.2754 45.4151 45.4918 45.8206 46.5056C42.9822 43.0589 39.7383 40.4232 35.0751 40.4232C30.6147 40.4232 26.7625 42.2479 23.7213 45.6946C23.7213 45.0863 23.7213 44.6809 23.5186 44.0726C22.7076 44.0726 22.0994 44.0726 21.2884 44.0726C18.8554 44.2754 16.6252 44.6809 14.5978 45.8973C14.1923 46.3028 13.7868 46.7083 13.7868 47.3165C13.7868 48.7358 13.7868 50.155 13.7868 51.5742C13.7868 52.3852 13.9895 52.5879 14.8005 52.7907C16.2197 53.1962 17.4362 53.6017 19.0582 54.0072C16.2197 54.0072 13.584 54.0072 11.1511 54.0072C11.1511 53.8044 11.1511 53.6017 11.1511 53.6017C12.5703 52.7907 12.7731 51.3715 12.5703 49.7495C12.5703 49.5468 12.5703 49.344 12.5703 49.1413C12.5703 46.9111 12.5703 46.9111 10.5428 46.1001C10.9483 45.8973 11.1511 45.6946 11.5566 45.4918C16.4225 42.2479 21.8966 40.2204 27.5735 39.4095C28.1817 39.4095 28.5872 39.2067 28.9927 39.004C32.6421 37.382 36.0888 37.1793 39.941 38.3957C41.3602 38.8012 42.7794 38.8012 44.1987 39.004C56.3634 39.815 68.5282 40.2204 80.6929 40.0177C80.8957 40.0177 80.8957 40.0177 81.0984 40.2204C80.2874 40.4232 79.2737 40.6259 78.4627 40.8287C70.9611 42.2479 63.2568 42.6534 55.5524 42.8561C52.3085 43.0589 48.8618 43.0589 45.4151 43.0589C45.2124 43.2616 45.0096 43.2616 44.6042 43.2616Z" fill="white"/>
<path d="M79.8818 33.3271C75.2187 32.7188 70.7582 32.1106 66.0951 33.1243C62.6484 33.9353 59.2017 35.5573 55.755 36.7738C55.3495 36.9765 54.7413 37.1793 54.3358 37.382C52.5111 38.3957 50.6864 38.3957 48.6589 37.7875C48.8617 37.7875 48.8617 37.7875 49.0644 37.5847C53.7276 35.76 58.5935 33.7326 63.4594 31.9079C66.7033 30.6914 70.15 31.0969 73.5967 31.2996C75.6241 31.5024 77.6516 31.5024 79.6791 31.7051C79.6791 32.3134 79.8818 32.9216 79.8818 33.3271Z" fill="white"/>
<path d="M80.8955 39.004H73.1912C73.1912 39.004 73.1912 39.004 73.1912 38.8012C74.4076 38.5985 75.6241 38.3957 76.8406 38.193C78.8681 37.9902 80.0845 37.382 80.6928 36.1655C80.6928 37.1793 80.8955 38.193 80.8955 39.004Z" fill="white"/>
<path d="M75.6242 52.1825C71.772 52.3852 68.1226 52.5879 64.2704 52.5879C59.81 52.7907 55.3496 52.9934 50.8892 53.1962C50.4837 53.1962 49.8754 52.9934 49.8754 52.7907C48.8617 50.155 47.848 47.5193 47.037 44.8836C48.2535 46.5056 49.4699 48.3303 50.6864 49.9523C51.2947 50.7632 51.9029 51.1687 52.9166 51.1687C60.0127 51.3715 67.1088 51.777 74.2049 51.9797C74.6104 51.9797 75.0159 51.9797 75.4214 51.9797C75.6242 52.1825 75.6242 52.1825 75.6242 52.1825Z" fill="white"/>
<path d="M43.5904 51.7769C42.7794 46.911 39.13 43.6671 34.6695 43.4644C29.8036 43.2616 26.357 46.1001 24.9377 51.5742C24.3295 49.1412 25.9515 45.6946 28.5872 43.6671C31.6284 41.4369 36.0888 41.4369 39.3327 43.4644C42.5766 45.2891 44.1986 48.533 43.5904 51.7769Z" fill="white"/>
</g>
<g clip-path="url(#clip1_497_8295)">
<path d="M97 62.2492H98.4476L99.5804 68.2232C99.7902 69.3929 100.021 70.5627 100.231 71.7533C100.483 70.5627 100.734 69.3929 101.007 68.2232L102.539 62.2492H103.797L105.329 68.2232C105.601 69.3721 105.874 70.5627 106.126 71.7533C106.357 70.5627 106.546 69.3721 106.755 68.2232L107.972 62.2492H109.336L107.133 73.2155H105.455L103.776 66.6148C103.587 65.7584 103.42 64.9647 103.252 64.1291C103.084 64.9647 102.895 65.7584 102.706 66.6148L101.07 73.2155H99.4126L97 62.2492Z" fill="#0032D3"/>
<path d="M111.329 62.2491H112.713V66.7818H117.853V62.1865H119.238V73.1527H117.853V68.056H112.713V73.2154H111.329V62.2491Z" fill="#0032D3"/>
<path d="M122.259 62.2492H128.553V63.4189H123.602V66.7819H127.797V67.9517H123.602V71.9413H128.72V73.1319H122.196L122.259 62.2492Z" fill="#0032D3"/>
<path d="M131.049 62.2492H134.49C136.735 62.2492 138.35 63.0429 138.35 65.3406C138.35 67.6383 136.735 68.5783 134.49 68.5783H132.392V73.2155H131.049V62.2492ZM134.301 67.4503C136 67.4503 136.944 66.761 136.944 65.3615C136.944 63.962 136 63.398 134.301 63.398H132.455V67.4712L134.301 67.4503ZM134.301 68.2023L135.392 67.4712L138.77 73.2155H137.175L134.301 68.2023Z" fill="#0032D3"/>
<path d="M140.658 62.2492H146.951V63.4189H142.021V66.7819H146.217V67.9517H142.021V71.9413H147.119V73.1319H140.616L140.658 62.2492Z" fill="#0032D3"/>
<path d="M148 62.2492H149.49L151.252 68.1814C151.651 69.4556 151.923 70.5 152.322 71.7951C152.742 70.5 153.014 69.4556 153.392 68.1814L155.154 62.2492H156.581L153.077 73.2155H151.462L148 62.2492Z" fill="#0032D3"/>
<path d="M158.07 62.2492H164.364V63.4189H159.413V66.7819H163.609V67.9517H159.413V71.9413H164.616V73.1319H158.091L158.07 62.2492Z" fill="#0032D3"/>
<path d="M166.924 62.2492H170.364C172.609 62.2492 174.224 63.0429 174.224 65.3406C174.224 67.6383 172.609 68.5783 170.364 68.5783H168.266V73.2155H166.861L166.924 62.2492ZM170.175 67.4503C171.875 67.4503 172.819 66.761 172.819 65.3615C172.819 63.962 171.875 63.398 170.175 63.398H168.329V67.4712L170.175 67.4503ZM170.175 68.2023L171.287 67.4712L174.644 73.2155H173.007L170.175 68.2023Z" fill="#0032D3"/>
<path d="M181.609 68.8707L178.315 62.1656H179.805L181.231 65.2571C181.567 66.0717 181.903 66.8237 182.28 67.6383C182.658 66.8237 183.035 66.0717 183.371 65.2571L184.798 62.1656H186.245L183.015 68.8707V73.0484H181.609V68.8707Z" fill="#0032D3"/>
<path d="M186.938 67.6801C186.938 64.1709 188.889 62.0403 191.658 62.0403C194.427 62.0403 196.357 64.1291 196.357 67.6801C196.357 71.231 194.406 73.4034 191.658 73.4034C188.91 73.4034 186.938 71.1893 186.938 67.6801ZM194.91 67.6801C194.91 64.9646 193.609 63.2727 191.658 63.2727C189.707 63.2727 188.385 64.9646 188.385 67.6801C188.385 70.3955 189.686 72.1919 191.658 72.1919C193.63 72.1919 194.91 70.4164 194.91 67.6801Z" fill="#0032D3"/>
<path d="M198.686 68.6827V62.2492H200.091V68.7245C200.091 71.3564 201.203 72.1919 202.63 72.1919C204.056 72.1919 205.252 71.3564 205.252 68.7245V62.2492H206.574V68.6827C206.574 72.1919 204.875 73.4034 202.609 73.4034C200.343 73.4034 198.686 72.1919 198.686 68.6827Z" fill="#0032D3"/>
<path d="M212.28 67.7427C212.195 67.0313 212.261 66.31 212.474 65.6257C212.688 64.9415 213.043 64.3097 213.519 63.7716C213.994 63.2335 214.577 62.8012 215.232 62.5029C215.886 62.2045 216.596 62.0469 217.315 62.0403C217.913 62.0272 218.507 62.1415 219.057 62.3757C219.607 62.6099 220.101 62.9584 220.504 63.398L219.728 64.317C219.435 63.9798 219.07 63.7114 218.66 63.5308C218.25 63.3503 217.805 63.2621 217.357 63.2726C215.134 63.2726 213.728 64.9646 213.728 67.7009C213.728 70.4373 215.029 72.1919 217.378 72.1919C218.092 72.2166 218.791 71.987 219.35 71.5443V68.6827H217.064V67.5338H220.672V72.1292C220.225 72.5588 219.696 72.8933 219.115 73.1123C218.534 73.3314 217.915 73.4304 217.294 73.4034C214.336 73.4034 212.28 71.2937 212.28 67.7427Z" fill="#0032D3"/>
<path d="M222.623 67.6801C222.623 64.1709 224.574 62.0403 227.322 62.0403C230.071 62.0403 232.043 64.1291 232.043 67.6801C232.043 71.231 230.092 73.4034 227.322 73.4034C224.553 73.4034 222.623 71.1893 222.623 67.6801ZM230.595 67.6801C230.595 64.9646 229.294 63.2727 227.322 63.2727C225.35 63.2727 224.071 64.9646 224.071 67.6801C224.071 70.3955 225.371 72.1919 227.322 72.1919C229.273 72.1919 230.595 70.4164 230.595 67.6801Z" fill="#0032D3"/>
<path d="M233.7 75.2415C234.136 75.0882 234.514 74.806 234.784 74.4326C235.054 74.0593 235.203 73.6127 235.211 73.1527L235.064 71.9203L235.735 72.9229C235.647 73.0157 235.539 73.0881 235.419 73.135C235.3 73.1819 235.171 73.2022 235.043 73.1945C234.913 73.2063 234.782 73.1907 234.659 73.1485C234.535 73.1063 234.422 73.0386 234.327 72.9497C234.232 72.8609 234.157 72.7531 234.107 72.6332C234.057 72.5134 234.032 72.3843 234.036 72.2545C234.036 72.1229 234.062 71.9926 234.115 71.8717C234.167 71.7509 234.244 71.642 234.34 71.5519C234.437 71.4618 234.551 71.3924 234.675 71.348C234.8 71.3036 234.932 71.2851 235.064 71.2937C235.798 71.2937 236.239 71.8994 236.239 72.902C236.246 73.5737 236.049 74.2319 235.675 74.7908C235.301 75.3497 234.766 75.7834 234.141 76.0353L233.7 75.2415Z" fill="#0032D3"/>
<path d="M240.812 62.2492H242.239L243.392 68.2232C243.623 69.3929 243.833 70.5627 244.043 71.7533C244.295 70.5627 244.567 69.3929 244.819 68.2232L246.351 62.2492H247.63L249.141 68.2232C249.413 69.3721 249.686 70.5627 249.938 71.7533C250.169 70.5627 250.358 69.3721 250.567 68.2232L251.721 62.2492H253.085L250.798 73.2155H249.12L247.441 66.6148C247.253 65.7584 247.085 64.9647 246.917 64.1291C246.749 64.9647 246.56 65.7584 246.371 66.6148L244.735 73.2155H243.078L240.812 62.2492Z" fill="#0032D3"/>
<path d="M255.141 62.2492H261.435V63.4189H256.504V66.7819H260.7V67.9517H256.504V71.9413H261.602V73.1319H255.099L255.141 62.2492Z" fill="#0032D3"/>
<path d="M263.532 65.3615C263.918 65.1658 264.24 64.8662 264.463 64.4968C264.685 64.1275 264.799 63.7033 264.791 63.2727L264.602 62.1656L265.295 63.022C265.212 63.1122 265.112 63.1847 265 63.235C264.888 63.2852 264.767 63.3123 264.644 63.3144C264.431 63.2818 264.237 63.1744 264.097 63.0115C263.957 62.8487 263.879 62.6412 263.879 62.4267C263.879 62.2121 263.957 62.0047 264.097 61.8418C264.237 61.679 264.431 61.5716 264.644 61.5389C265.316 61.5389 265.714 62.082 265.714 63.0429C265.727 63.6567 265.564 64.2615 265.245 64.7867C264.925 65.3119 264.462 65.7358 263.91 66.009L263.532 65.3615Z" fill="#0032D3"/>
<path d="M268.169 62.2492H271.609C273.854 62.2492 275.47 63.0429 275.47 65.3406C275.47 67.6383 273.854 68.5783 271.609 68.5783H269.512V73.2155H268.127L268.169 62.2492ZM271.4 67.4503C273.12 67.4503 274.064 66.761 274.064 65.3615C274.064 63.962 273.12 63.398 271.4 63.398H269.512V67.4712L271.4 67.4503ZM271.4 68.2023L272.491 67.4712L275.847 73.2155H274.274L271.4 68.2023Z" fill="#0032D3"/>
<path d="M277.714 62.2492H284.008V63.4189H279.078V66.7819H283.274V67.9517H279.078V71.9413H284.197V73.1319H277.693L277.714 62.2492Z" fill="#0032D3"/>
<path d="M292.211 63.4189H288.875V62.2492H296.931V63.4189H293.596V73.2155H292.211V63.4189Z" fill="#0032D3"/>
<path d="M298.882 62.2491H300.288V66.7818H305.407V62.1865H306.812V73.1527H305.407V68.056H300.288V73.2154H298.882V62.2491Z" fill="#0032D3"/>
<path d="M309.854 62.2492H316.148V63.4189H311.197V66.7819H315.393V67.9517H311.197V71.9413H316.316V73.1319H309.812L309.854 62.2492Z" fill="#0032D3"/>
<path d="M318.686 62.2492H322.148C324.393 62.2492 325.987 63.0429 325.987 65.3406C325.987 67.6383 324.393 68.5783 322.148 68.5783H320.05V73.2155H318.645L318.686 62.2492ZM321.959 67.4503C323.68 67.4503 324.624 66.761 324.624 65.3615C324.624 63.962 323.68 63.398 321.959 63.398H320.113V67.4712L321.959 67.4503ZM321.959 68.2023L323.05 67.4712L326.407 73.2155H324.812L321.959 68.2023Z" fill="#0032D3"/>
<path d="M328.253 62.2492H334.547V63.4189H329.596V66.7819H333.792V67.9517H329.596V71.9413H334.715V73.1319H328.253V62.2492Z" fill="#0032D3"/>
<path d="M107.301 13.6635H116.196L126.497 46.3324H118.65L114.455 29.7891C113.532 26.5096 112.671 22.6453 111.79 19.2406H111.581C110.804 22.6871 109.923 26.5096 109 29.7891L104.699 46.3324H97L107.301 13.6635ZM103.797 32.8178H119.595V38.5412H103.797V32.8178Z" fill="#0032D3"/>
<path d="M129.329 31.2721V13.6635H136.756V31.9405C136.756 38.3532 138.854 40.5464 142.462 40.5464C146.07 40.5464 148.273 38.4576 148.273 31.9405V13.6635H155.427V31.2721C155.427 42.2384 150.937 47.0218 142.462 47.0218C133.986 47.0218 129.329 42.1548 129.329 31.2721Z" fill="#0032D3"/>
<path d="M169.399 19.8463H160.378V13.5799H185.973V19.8463H176.931V46.3324H169.399V19.8463Z" fill="#0032D3"/>
<path d="M188.07 29.8517C188.07 19.1779 194.133 13.1412 202.987 13.1412C211.84 13.1412 217.882 19.4077 217.882 29.8517C217.882 40.2958 211.84 46.9382 202.987 46.9382C194.133 46.9382 188.07 40.5255 188.07 29.8517ZM210.287 29.8517C210.287 23.2929 207.455 19.4077 202.987 19.4077C198.518 19.4077 195.686 23.272 195.686 29.8517C195.686 36.4315 198.497 40.5464 202.987 40.5464C207.476 40.5464 210.224 36.4106 210.224 29.8517H210.287Z" fill="#0032D3"/>
<path d="M229.609 13.6635H238.42L248.91 46.3324H240.938L236.742 29.7891C235.84 26.5096 234.959 22.6453 234.078 19.2406H233.889C233.092 22.6871 232.211 26.5096 231.308 29.7891L226.987 46.3324H219.413L229.609 13.6635ZM226.106 32.8178H241.882V38.5412H226.106V32.8178Z" fill="#0032D3"/>
<path d="M250.232 42.2175L254.428 37.1417C256.639 39.1661 259.485 40.3687 262.483 40.5464C265.588 40.5464 267.099 39.3349 267.099 37.3923C267.099 35.4497 265.232 34.6769 262.379 33.5071L258.183 31.6899C256.286 31.0794 254.629 29.893 253.444 28.2972C252.258 26.7013 251.605 24.7761 251.574 22.7916C251.574 17.3815 256.421 13.0577 263.26 13.0577C267.166 13.0534 270.924 14.5498 273.749 17.2353L270.015 21.8934C268.113 20.2717 265.701 19.3629 263.197 19.3241C260.637 19.3241 259.001 20.3894 259.001 22.2485C259.001 24.1075 261.099 24.9848 264.015 26.1336L268.211 27.8047C270.133 28.3622 271.815 29.5376 272.995 31.1474C274.176 32.7571 274.787 34.7106 274.735 36.703C274.735 42.1339 270.183 46.8337 262.358 46.8337C257.881 46.8404 253.562 45.1958 250.232 42.2175Z" fill="#0032D3"/>
<path d="M277.316 42.2175L281.512 37.1417C283.731 39.1676 286.583 40.37 289.588 40.5465C292.672 40.5465 294.204 39.3349 294.204 37.3923C294.204 35.4497 292.316 34.6769 289.463 33.5072L285.267 31.6899C283.368 31.0803 281.708 29.8947 280.519 28.2991C279.33 26.7036 278.672 24.7779 278.637 22.7916C278.637 17.3815 283.484 13.0577 290.323 13.0577C294.23 13.0512 297.988 14.548 300.812 17.2353L297.162 21.9978C295.261 20.3731 292.848 19.4639 290.344 19.4286C287.784 19.4286 286.148 20.4939 286.148 22.3529C286.148 24.212 288.246 25.0892 291.141 26.2381L295.337 27.9091C297.253 28.4737 298.928 29.6515 300.104 31.2601C301.28 32.8688 301.89 34.8186 301.84 36.8075C301.84 42.2384 297.288 46.9382 289.484 46.9382C284.979 46.9266 280.641 45.2434 277.316 42.2175Z" fill="#0032D3"/>
<path d="M307.442 13.6635H314.847V46.3324H307.442V13.6635Z" fill="#0032D3"/>
<path d="M320.47 42.2175L324.666 37.1417C326.905 39.1883 329.791 40.3925 332.827 40.5464C335.932 40.5464 337.442 39.3349 337.442 37.3923C337.442 35.4497 335.575 34.6769 332.722 33.5071L328.526 31.6899C326.629 31.0794 324.972 29.893 323.787 28.2972C322.602 26.7013 321.948 24.7761 321.918 22.7915C321.918 17.3815 326.764 13.0577 333.603 13.0577C337.509 13.0534 341.267 14.5498 344.092 17.2353L340.358 21.8934C338.458 20.2687 336.045 19.3594 333.54 19.3241C330.981 19.3241 329.344 20.3894 329.344 22.2485C329.344 24.1075 331.442 24.9848 334.358 26.1336L338.554 27.8047C340.47 28.3692 342.146 29.547 343.321 31.1557C344.497 32.7644 345.107 34.7141 345.058 36.703C345.058 42.1339 340.505 46.8337 332.68 46.8337C328.175 46.8611 323.821 45.2152 320.47 42.2175Z" fill="#0032D3"/>
<path d="M356.009 19.8463H346.967V13.5799H372.456V19.8463H363.414V46.3324H356.009V19.8463Z" fill="#0032D3"/>
<path d="M387.645 13.6635H398.911C406.149 13.6635 411.96 16.2327 411.96 24.1075C411.96 31.9823 406.065 35.1782 399.121 35.1782H395.072V46.2698H387.645V13.6635ZM398.68 29.3713C402.876 29.3713 404.701 27.5749 404.701 24.1702C404.701 20.7654 402.603 19.5121 398.408 19.5121H394.988V29.3713H398.68Z" fill="#0032D3"/>
<path d="M417.645 13.6635H429.477C436.421 13.6635 442.065 16.0656 442.065 23.836C442.065 31.6063 436.337 34.5724 429.477 34.5724H425.135V46.3324H417.708L417.645 13.6635ZM428.869 28.7029C432.771 28.7029 434.869 27.0527 434.869 23.836C434.869 20.6192 432.771 19.5121 428.869 19.5121H425.135V28.7029H428.869ZM428.114 32.6299L433.254 27.9091L443.743 46.3324H435.351L428.114 32.6299Z" fill="#0032D3"/>
<path d="M446.953 29.8517C446.953 19.1779 453.016 13.1412 461.869 13.1412C470.722 13.1412 476.785 19.4077 476.785 29.8517C476.785 40.2958 470.722 46.9382 461.869 46.9382C453.016 46.9382 446.953 40.5255 446.953 29.8517ZM469.17 29.8517C469.17 23.2929 466.338 19.4077 461.869 19.4077C457.401 19.4077 454.568 23.272 454.568 29.8517C454.568 36.4315 457.401 40.5464 461.869 40.5464C466.338 40.5464 469.191 36.4106 469.191 29.8517H469.17Z" fill="#0032D3"/>
</g>
<defs>
<clipPath id="clip0_497_8295">
<rect width="81.0984" height="81.0984" fill="white" transform="translate(0 2.10425)"/>
</clipPath>
<clipPath id="clip1_497_8295">
<rect width="388" height="66.7869" fill="white" transform="matrix(-1 0 0 1 485 9.26001)"/>
</clipPath>
</defs>
</svg>
